<mxfile host="app.diagrams.net" modified="2023-02-07T01:50:09.925Z" agent="5.0 (Windows NT 10.0; Win64; x64) AppleWebKit/537.36 (KHTML, like Gecko) Chrome/109.0.0.0 Safari/537.36 Edg/109.0.1518.78" etag="uVZyzE9UVkzrEjIsWKfZ" version="20.8.17" type="github" pages="2">
  <diagram name="페이지-1" id="vJRO00hqkpaGBJSzuBlY">
    <mxGraphModel dx="2214" dy="1965" grid="1" gridSize="10" guides="1" tooltips="1" connect="1" arrows="1" fold="1" page="1" pageScale="1" pageWidth="827" pageHeight="1169" math="0" shadow="0">
      <root>
        <mxCell id="0" />
        <mxCell id="1" parent="0" />
        <mxCell id="CpFPPWbDuUFxYbLGl7Xc-32" style="edgeStyle=orthogonalEdgeStyle;rounded=0;orthogonalLoop=1;jettySize=auto;html=1;" edge="1" parent="1" source="CpFPPWbDuUFxYbLGl7Xc-19" target="CpFPPWbDuUFxYbLGl7Xc-20">
          <mxGeometry relative="1" as="geometry">
            <Array as="points">
              <mxPoint x="800" y="-430" />
              <mxPoint x="800" y="-430" />
            </Array>
          </mxGeometry>
        </mxCell>
        <mxCell id="CpFPPWbDuUFxYbLGl7Xc-19" value="DB" style="shape=cylinder3;whiteSpace=wrap;html=1;boundedLbl=1;backgroundOutline=1;size=15;" vertex="1" parent="1">
          <mxGeometry x="810" y="-523.12" width="90" height="120" as="geometry" />
        </mxCell>
        <mxCell id="CpFPPWbDuUFxYbLGl7Xc-36" style="edgeStyle=orthogonalEdgeStyle;rounded=0;orthogonalLoop=1;jettySize=auto;html=1;" edge="1" parent="1" source="CpFPPWbDuUFxYbLGl7Xc-20" target="CpFPPWbDuUFxYbLGl7Xc-21">
          <mxGeometry relative="1" as="geometry">
            <Array as="points">
              <mxPoint x="610" y="-430" />
              <mxPoint x="610" y="-430" />
            </Array>
          </mxGeometry>
        </mxCell>
        <mxCell id="CpFPPWbDuUFxYbLGl7Xc-58" value="" style="edgeStyle=orthogonalEdgeStyle;rounded=0;orthogonalLoop=1;jettySize=auto;html=1;fontSize=12;" edge="1" parent="1" source="CpFPPWbDuUFxYbLGl7Xc-20" target="CpFPPWbDuUFxYbLGl7Xc-19">
          <mxGeometry relative="1" as="geometry">
            <Array as="points">
              <mxPoint x="790" y="-490" />
              <mxPoint x="790" y="-490" />
            </Array>
          </mxGeometry>
        </mxCell>
        <mxCell id="CpFPPWbDuUFxYbLGl7Xc-20" value="DAO" style="whiteSpace=wrap;html=1;aspect=fixed;" vertex="1" parent="1">
          <mxGeometry x="640" y="-523.12" width="120" height="120" as="geometry" />
        </mxCell>
        <mxCell id="CpFPPWbDuUFxYbLGl7Xc-29" style="edgeStyle=orthogonalEdgeStyle;rounded=0;orthogonalLoop=1;jettySize=auto;html=1;" edge="1" parent="1" source="CpFPPWbDuUFxYbLGl7Xc-21" target="CpFPPWbDuUFxYbLGl7Xc-20">
          <mxGeometry relative="1" as="geometry">
            <Array as="points">
              <mxPoint x="610" y="-480" />
              <mxPoint x="610" y="-480" />
            </Array>
          </mxGeometry>
        </mxCell>
        <mxCell id="CpFPPWbDuUFxYbLGl7Xc-37" value="" style="edgeStyle=orthogonalEdgeStyle;rounded=0;orthogonalLoop=1;jettySize=auto;html=1;" edge="1" parent="1" source="CpFPPWbDuUFxYbLGl7Xc-21" target="CpFPPWbDuUFxYbLGl7Xc-22">
          <mxGeometry relative="1" as="geometry">
            <Array as="points">
              <mxPoint x="440" y="-430" />
              <mxPoint x="440" y="-430" />
            </Array>
          </mxGeometry>
        </mxCell>
        <mxCell id="CpFPPWbDuUFxYbLGl7Xc-21" value="Service" style="whiteSpace=wrap;html=1;aspect=fixed;" vertex="1" parent="1">
          <mxGeometry x="470" y="-520.62" width="115" height="115" as="geometry" />
        </mxCell>
        <mxCell id="CpFPPWbDuUFxYbLGl7Xc-38" style="edgeStyle=orthogonalEdgeStyle;rounded=0;orthogonalLoop=1;jettySize=auto;html=1;" edge="1" parent="1" source="CpFPPWbDuUFxYbLGl7Xc-22">
          <mxGeometry relative="1" as="geometry">
            <mxPoint x="470" y="-480" as="targetPoint" />
            <Array as="points">
              <mxPoint x="470" y="-480" />
            </Array>
          </mxGeometry>
        </mxCell>
        <mxCell id="CpFPPWbDuUFxYbLGl7Xc-39" value="Model&lt;br&gt;and&lt;br&gt;view" style="edgeStyle=orthogonalEdgeStyle;rounded=0;orthogonalLoop=1;jettySize=auto;html=1;" edge="1" parent="1" source="CpFPPWbDuUFxYbLGl7Xc-22" target="CpFPPWbDuUFxYbLGl7Xc-24">
          <mxGeometry relative="1" as="geometry">
            <Array as="points">
              <mxPoint x="270" y="-430" />
              <mxPoint x="270" y="-430" />
            </Array>
          </mxGeometry>
        </mxCell>
        <mxCell id="CpFPPWbDuUFxYbLGl7Xc-22" value="Controller" style="whiteSpace=wrap;html=1;aspect=fixed;" vertex="1" parent="1">
          <mxGeometry x="301" y="-519.37" width="112.5" height="112.5" as="geometry" />
        </mxCell>
        <mxCell id="CpFPPWbDuUFxYbLGl7Xc-23" value="JSP" style="whiteSpace=wrap;html=1;aspect=fixed;" vertex="1" parent="1">
          <mxGeometry x="40" y="-330" width="100" height="100" as="geometry" />
        </mxCell>
        <mxCell id="CpFPPWbDuUFxYbLGl7Xc-26" value="" style="edgeStyle=orthogonalEdgeStyle;rounded=0;orthogonalLoop=1;jettySize=auto;html=1;" edge="1" parent="1" source="CpFPPWbDuUFxYbLGl7Xc-24" target="CpFPPWbDuUFxYbLGl7Xc-22">
          <mxGeometry relative="1" as="geometry">
            <Array as="points">
              <mxPoint x="270" y="-480" />
              <mxPoint x="270" y="-480" />
            </Array>
          </mxGeometry>
        </mxCell>
        <mxCell id="CpFPPWbDuUFxYbLGl7Xc-57" style="edgeStyle=orthogonalEdgeStyle;rounded=0;orthogonalLoop=1;jettySize=auto;html=1;fontSize=12;" edge="1" parent="1" source="CpFPPWbDuUFxYbLGl7Xc-24">
          <mxGeometry relative="1" as="geometry">
            <mxPoint x="-50" y="-420" as="targetPoint" />
            <Array as="points">
              <mxPoint x="80" y="-420" />
              <mxPoint x="80" y="-420" />
            </Array>
          </mxGeometry>
        </mxCell>
        <mxCell id="CpFPPWbDuUFxYbLGl7Xc-65" style="edgeStyle=orthogonalEdgeStyle;rounded=0;orthogonalLoop=1;jettySize=auto;html=1;fontSize=12;startArrow=none;" edge="1" parent="1" source="CpFPPWbDuUFxYbLGl7Xc-63">
          <mxGeometry relative="1" as="geometry">
            <mxPoint x="-220" y="-440" as="targetPoint" />
            <Array as="points">
              <mxPoint x="100" y="-440" />
            </Array>
          </mxGeometry>
        </mxCell>
        <mxCell id="CpFPPWbDuUFxYbLGl7Xc-24" value="DS" style="whiteSpace=wrap;html=1;aspect=fixed;" vertex="1" parent="1">
          <mxGeometry x="130" y="-516.25" width="106.25" height="106.25" as="geometry" />
        </mxCell>
        <mxCell id="CpFPPWbDuUFxYbLGl7Xc-25" value="Intemal&lt;br&gt;Resource&lt;br&gt;ViewResolver&lt;br&gt;" style="whiteSpace=wrap;html=1;aspect=fixed;" vertex="1" parent="1">
          <mxGeometry x="220" y="-340" width="100" height="100" as="geometry" />
        </mxCell>
        <mxCell id="CpFPPWbDuUFxYbLGl7Xc-42" value="" style="endArrow=classic;html=1;rounded=0;entryX=0.25;entryY=0;entryDx=0;entryDy=0;exitX=0.5;exitY=1;exitDx=0;exitDy=0;" edge="1" parent="1" source="CpFPPWbDuUFxYbLGl7Xc-24" target="CpFPPWbDuUFxYbLGl7Xc-25">
          <mxGeometry width="50" height="50" relative="1" as="geometry">
            <mxPoint x="150" y="-350" as="sourcePoint" />
            <mxPoint x="200" y="-400" as="targetPoint" />
            <Array as="points" />
          </mxGeometry>
        </mxCell>
        <mxCell id="CpFPPWbDuUFxYbLGl7Xc-43" value="&lt;font style=&quot;font-size: 12px;&quot;&gt;prefix +viewName + suffix&lt;/font&gt;" style="text;strokeColor=none;fillColor=none;html=1;fontSize=24;fontStyle=1;verticalAlign=middle;align=center;" vertex="1" parent="1">
          <mxGeometry x="330" y="-310" width="150" height="50" as="geometry" />
        </mxCell>
        <mxCell id="CpFPPWbDuUFxYbLGl7Xc-44" value="" style="endArrow=classic;html=1;rounded=0;fontSize=12;exitX=0.58;exitY=-0.01;exitDx=0;exitDy=0;exitPerimeter=0;" edge="1" parent="1" source="CpFPPWbDuUFxYbLGl7Xc-25" target="CpFPPWbDuUFxYbLGl7Xc-24">
          <mxGeometry width="50" height="50" relative="1" as="geometry">
            <mxPoint x="270" y="-360" as="sourcePoint" />
            <mxPoint x="440" y="-450" as="targetPoint" />
          </mxGeometry>
        </mxCell>
        <mxCell id="CpFPPWbDuUFxYbLGl7Xc-45" value="view" style="text;strokeColor=none;fillColor=none;html=1;fontSize=12;fontStyle=1;verticalAlign=middle;align=center;" vertex="1" parent="1">
          <mxGeometry x="270" y="-380" width="100" height="30" as="geometry" />
        </mxCell>
        <mxCell id="CpFPPWbDuUFxYbLGl7Xc-46" value="" style="endArrow=classic;html=1;rounded=0;fontSize=12;exitX=0.25;exitY=0;exitDx=0;exitDy=0;" edge="1" parent="1" source="CpFPPWbDuUFxYbLGl7Xc-23">
          <mxGeometry width="50" height="50" relative="1" as="geometry">
            <mxPoint x="80" y="-360" as="sourcePoint" />
            <mxPoint x="130" y="-410" as="targetPoint" />
            <Array as="points" />
          </mxGeometry>
        </mxCell>
        <mxCell id="CpFPPWbDuUFxYbLGl7Xc-47" value="" style="endArrow=classic;html=1;rounded=0;fontSize=12;entryX=0.75;entryY=0;entryDx=0;entryDy=0;exitX=0.25;exitY=1;exitDx=0;exitDy=0;" edge="1" parent="1" source="CpFPPWbDuUFxYbLGl7Xc-24" target="CpFPPWbDuUFxYbLGl7Xc-23">
          <mxGeometry width="50" height="50" relative="1" as="geometry">
            <mxPoint x="50" y="-360" as="sourcePoint" />
            <mxPoint x="100" y="-410" as="targetPoint" />
          </mxGeometry>
        </mxCell>
        <mxCell id="CpFPPWbDuUFxYbLGl7Xc-48" value="Model" style="text;strokeColor=none;fillColor=none;html=1;fontSize=12;fontStyle=1;verticalAlign=middle;align=center;" vertex="1" parent="1">
          <mxGeometry x="100" y="-377.5" width="80" height="25" as="geometry" />
        </mxCell>
        <mxCell id="CpFPPWbDuUFxYbLGl7Xc-50" value="" style="endArrow=classic;html=1;rounded=0;fontSize=12;startArrow=none;" edge="1" parent="1" source="CpFPPWbDuUFxYbLGl7Xc-52">
          <mxGeometry width="50" height="50" relative="1" as="geometry">
            <mxPoint x="-90" y="-490" as="sourcePoint" />
            <mxPoint x="130" y="-490" as="targetPoint" />
          </mxGeometry>
        </mxCell>
        <mxCell id="CpFPPWbDuUFxYbLGl7Xc-51" value="URL(ip:port),Method,parameter" style="text;strokeColor=none;fillColor=none;html=1;fontSize=12;fontStyle=1;verticalAlign=middle;align=center;" vertex="1" parent="1">
          <mxGeometry x="-110" y="-559.37" width="220" height="40" as="geometry" />
        </mxCell>
        <mxCell id="CpFPPWbDuUFxYbLGl7Xc-54" value="" style="endArrow=none;html=1;rounded=0;fontSize=12;" edge="1" parent="1" target="CpFPPWbDuUFxYbLGl7Xc-53">
          <mxGeometry width="50" height="50" relative="1" as="geometry">
            <mxPoint x="-90" y="-490" as="sourcePoint" />
            <mxPoint x="130" y="-490" as="targetPoint" />
          </mxGeometry>
        </mxCell>
        <mxCell id="CpFPPWbDuUFxYbLGl7Xc-53" value="Respons" style="ellipse;whiteSpace=wrap;html=1;aspect=fixed;fontSize=12;" vertex="1" parent="1">
          <mxGeometry x="-60" y="-519.37" width="60" height="60" as="geometry" />
        </mxCell>
        <mxCell id="CpFPPWbDuUFxYbLGl7Xc-55" value="" style="endArrow=none;html=1;rounded=0;fontSize=12;startArrow=none;" edge="1" parent="1" source="CpFPPWbDuUFxYbLGl7Xc-53" target="CpFPPWbDuUFxYbLGl7Xc-52">
          <mxGeometry width="50" height="50" relative="1" as="geometry">
            <mxPoint x="-10.244650613056365" y="-505.5827389570061" as="sourcePoint" />
            <mxPoint x="130" y="-490" as="targetPoint" />
          </mxGeometry>
        </mxCell>
        <mxCell id="CpFPPWbDuUFxYbLGl7Xc-52" value="Request" style="ellipse;whiteSpace=wrap;html=1;aspect=fixed;fontSize=12;" vertex="1" parent="1">
          <mxGeometry x="10" y="-519.37" width="60" height="60" as="geometry" />
        </mxCell>
        <mxCell id="CpFPPWbDuUFxYbLGl7Xc-60" value="Fowarding, Redirect" style="text;html=1;strokeColor=none;fillColor=none;align=center;verticalAlign=middle;whiteSpace=wrap;rounded=0;fontSize=12;" vertex="1" parent="1">
          <mxGeometry x="-60" y="-620" width="170" height="30" as="geometry" />
        </mxCell>
        <mxCell id="CpFPPWbDuUFxYbLGl7Xc-66" value="" style="edgeStyle=orthogonalEdgeStyle;rounded=0;orthogonalLoop=1;jettySize=auto;html=1;fontSize=12;endArrow=none;" edge="1" parent="1" source="CpFPPWbDuUFxYbLGl7Xc-24" target="CpFPPWbDuUFxYbLGl7Xc-63">
          <mxGeometry relative="1" as="geometry">
            <mxPoint x="-220" y="-440" as="targetPoint" />
            <mxPoint x="130" y="-440" as="sourcePoint" />
            <Array as="points">
              <mxPoint x="70" y="-440" />
              <mxPoint x="70" y="-440" />
            </Array>
          </mxGeometry>
        </mxCell>
        <mxCell id="CpFPPWbDuUFxYbLGl7Xc-63" value="Redirect(다시 접속할 URL주소를 가지고 나감&lt;br&gt;" style="text;html=1;strokeColor=none;fillColor=none;align=center;verticalAlign=middle;whiteSpace=wrap;rounded=0;fontSize=12;" vertex="1" parent="1">
          <mxGeometry x="-220" y="-459.37" width="270" height="30" as="geometry" />
        </mxCell>
      </root>
    </mxGraphModel>
  </diagram>
  <diagram id="TAv-3YEOq6iiqEUwi1SK" name="페이지-2">
    <mxGraphModel dx="1387" dy="796" grid="1" gridSize="10" guides="1" tooltips="1" connect="1" arrows="1" fold="1" page="1" pageScale="1" pageWidth="1169" pageHeight="827" math="0" shadow="0">
      <root>
        <mxCell id="0" />
        <mxCell id="1" parent="0" />
        <mxCell id="Tq7jGYfVatZDM1Ckg21b-1" value="ProductDAO" style="swimlane;fontStyle=1;align=center;verticalAlign=top;childLayout=stackLayout;horizontal=1;startSize=40;horizontalStack=0;resizeParent=1;resizeParentMax=0;resizeLast=0;collapsible=1;marginBottom=0;fontSize=12;" vertex="1" parent="1">
          <mxGeometry x="960" y="168" width="300" height="190" as="geometry" />
        </mxCell>
        <mxCell id="Tq7jGYfVatZDM1Ckg21b-2" value="- sqlSession: sqlSession&#xa;-NAMESPACE: String" style="text;strokeColor=none;fillColor=none;align=left;verticalAlign=top;spacingLeft=4;spacingRight=4;overflow=hidden;rotatable=0;points=[[0,0.5],[1,0.5]];portConstraint=eastwest;fontSize=12;" vertex="1" parent="Tq7jGYfVatZDM1Ckg21b-1">
          <mxGeometry y="40" width="300" height="60" as="geometry" />
        </mxCell>
        <mxCell id="Tq7jGYfVatZDM1Ckg21b-3" value="" style="line;strokeWidth=1;fillColor=none;align=left;verticalAlign=middle;spacingTop=-1;spacingLeft=3;spacingRight=3;rotatable=0;labelPosition=right;points=[];portConstraint=eastwest;strokeColor=inherit;fontSize=12;" vertex="1" parent="Tq7jGYfVatZDM1Ckg21b-1">
          <mxGeometry y="100" width="300" height="8" as="geometry" />
        </mxCell>
        <mxCell id="Tq7jGYfVatZDM1Ckg21b-4" value="+ getProductList(): List&lt;ProductDTO&gt;&#xa;+getProductDetail(ProductDTO): ProductDTO&#xa;+setAddProduct(ProductDTO): int" style="text;strokeColor=none;fillColor=none;align=left;verticalAlign=top;spacingLeft=4;spacingRight=4;overflow=hidden;rotatable=0;points=[[0,0.5],[1,0.5]];portConstraint=eastwest;fontSize=12;" vertex="1" parent="Tq7jGYfVatZDM1Ckg21b-1">
          <mxGeometry y="108" width="300" height="82" as="geometry" />
        </mxCell>
        <mxCell id="Tq7jGYfVatZDM1Ckg21b-5" value="Product" style="text;html=1;strokeColor=none;fillColor=none;align=center;verticalAlign=middle;whiteSpace=wrap;rounded=0;fontSize=12;" vertex="1" parent="1">
          <mxGeometry x="160" y="80" width="60" height="30" as="geometry" />
        </mxCell>
        <mxCell id="Tq7jGYfVatZDM1Ckg21b-22" style="edgeStyle=orthogonalEdgeStyle;rounded=0;orthogonalLoop=1;jettySize=auto;html=1;fontSize=12;" edge="1" parent="1" source="Tq7jGYfVatZDM1Ckg21b-10" target="Tq7jGYfVatZDM1Ckg21b-1">
          <mxGeometry relative="1" as="geometry">
            <Array as="points">
              <mxPoint x="910" y="230" />
              <mxPoint x="910" y="230" />
            </Array>
          </mxGeometry>
        </mxCell>
        <mxCell id="Tq7jGYfVatZDM1Ckg21b-10" value="ProductService" style="swimlane;fontStyle=1;align=center;verticalAlign=top;childLayout=stackLayout;horizontal=1;startSize=40;horizontalStack=0;resizeParent=1;resizeParentMax=0;resizeLast=0;collapsible=1;marginBottom=0;fontSize=12;" vertex="1" parent="1">
          <mxGeometry x="520" y="168" width="330" height="204" as="geometry" />
        </mxCell>
        <mxCell id="Tq7jGYfVatZDM1Ckg21b-11" value="- ProductDAO: ProductDAO" style="text;strokeColor=none;fillColor=none;align=left;verticalAlign=top;spacingLeft=4;spacingRight=4;overflow=hidden;rotatable=0;points=[[0,0.5],[1,0.5]];portConstraint=eastwest;fontSize=12;" vertex="1" parent="Tq7jGYfVatZDM1Ckg21b-10">
          <mxGeometry y="40" width="330" height="64" as="geometry" />
        </mxCell>
        <mxCell id="Tq7jGYfVatZDM1Ckg21b-12" value="" style="line;strokeWidth=1;fillColor=none;align=left;verticalAlign=middle;spacingTop=-1;spacingLeft=3;spacingRight=3;rotatable=0;labelPosition=right;points=[];portConstraint=eastwest;strokeColor=inherit;fontSize=12;" vertex="1" parent="Tq7jGYfVatZDM1Ckg21b-10">
          <mxGeometry y="104" width="330" height="8" as="geometry" />
        </mxCell>
        <mxCell id="Tq7jGYfVatZDM1Ckg21b-13" value="+ getProductList(): List&lt;ProductDTO&gt;&#xa;+getProductDetail(ProductDTO): ProductDTO&#xa;+setAddProduct(ProductDTO,List&lt;ProductOptionDTO&gt;): int" style="text;strokeColor=none;fillColor=none;align=left;verticalAlign=top;spacingLeft=4;spacingRight=4;overflow=hidden;rotatable=0;points=[[0,0.5],[1,0.5]];portConstraint=eastwest;fontSize=12;" vertex="1" parent="Tq7jGYfVatZDM1Ckg21b-10">
          <mxGeometry y="112" width="330" height="92" as="geometry" />
        </mxCell>
        <mxCell id="Tq7jGYfVatZDM1Ckg21b-21" style="edgeStyle=orthogonalEdgeStyle;rounded=0;orthogonalLoop=1;jettySize=auto;html=1;fontSize=12;" edge="1" parent="1" source="Tq7jGYfVatZDM1Ckg21b-14" target="Tq7jGYfVatZDM1Ckg21b-10">
          <mxGeometry relative="1" as="geometry">
            <Array as="points">
              <mxPoint x="480" y="230" />
              <mxPoint x="480" y="230" />
            </Array>
          </mxGeometry>
        </mxCell>
        <mxCell id="Tq7jGYfVatZDM1Ckg21b-14" value="ProductController" style="swimlane;fontStyle=1;align=center;verticalAlign=top;childLayout=stackLayout;horizontal=1;startSize=40;horizontalStack=0;resizeParent=1;resizeParentMax=0;resizeLast=0;collapsible=1;marginBottom=0;fontSize=12;" vertex="1" parent="1">
          <mxGeometry x="170" y="168" width="260" height="200" as="geometry" />
        </mxCell>
        <mxCell id="Tq7jGYfVatZDM1Ckg21b-15" value="- ProductService: ProductService" style="text;strokeColor=none;fillColor=none;align=left;verticalAlign=top;spacingLeft=4;spacingRight=4;overflow=hidden;rotatable=0;points=[[0,0.5],[1,0.5]];portConstraint=eastwest;fontSize=12;" vertex="1" parent="Tq7jGYfVatZDM1Ckg21b-14">
          <mxGeometry y="40" width="260" height="54" as="geometry" />
        </mxCell>
        <mxCell id="Tq7jGYfVatZDM1Ckg21b-16" value="" style="line;strokeWidth=1;fillColor=none;align=left;verticalAlign=middle;spacingTop=-1;spacingLeft=3;spacingRight=3;rotatable=0;labelPosition=right;points=[];portConstraint=eastwest;strokeColor=inherit;fontSize=12;" vertex="1" parent="Tq7jGYfVatZDM1Ckg21b-14">
          <mxGeometry y="94" width="260" height="8" as="geometry" />
        </mxCell>
        <mxCell id="Tq7jGYfVatZDM1Ckg21b-17" value="+ getProductList(): ModelView&#xa;+getProductDetail(ProductDTO): String&#xa;+setAddProduct(): void&#xa;+setAddProduct(ProductDTO): String" style="text;strokeColor=none;fillColor=none;align=left;verticalAlign=top;spacingLeft=4;spacingRight=4;overflow=hidden;rotatable=0;points=[[0,0.5],[1,0.5]];portConstraint=eastwest;fontSize=12;" vertex="1" parent="Tq7jGYfVatZDM1Ckg21b-14">
          <mxGeometry y="102" width="260" height="98" as="geometry" />
        </mxCell>
        <mxCell id="Tq7jGYfVatZDM1Ckg21b-23" value="Member" style="text;html=1;strokeColor=none;fillColor=none;align=center;verticalAlign=middle;whiteSpace=wrap;rounded=0;fontSize=12;" vertex="1" parent="1">
          <mxGeometry x="170" y="470" width="60" height="30" as="geometry" />
        </mxCell>
        <mxCell id="Tq7jGYfVatZDM1Ckg21b-24" value="MemberController" style="swimlane;fontStyle=1;align=center;verticalAlign=top;childLayout=stackLayout;horizontal=1;startSize=40;horizontalStack=0;resizeParent=1;resizeParentMax=0;resizeLast=0;collapsible=1;marginBottom=0;fontSize=12;" vertex="1" parent="1">
          <mxGeometry x="160" y="500" width="260" height="200" as="geometry" />
        </mxCell>
        <mxCell id="Tq7jGYfVatZDM1Ckg21b-25" value="- MemberService: MemberService" style="text;strokeColor=none;fillColor=none;align=left;verticalAlign=top;spacingLeft=4;spacingRight=4;overflow=hidden;rotatable=0;points=[[0,0.5],[1,0.5]];portConstraint=eastwest;fontSize=12;" vertex="1" parent="Tq7jGYfVatZDM1Ckg21b-24">
          <mxGeometry y="40" width="260" height="54" as="geometry" />
        </mxCell>
        <mxCell id="Tq7jGYfVatZDM1Ckg21b-26" value="" style="line;strokeWidth=1;fillColor=none;align=left;verticalAlign=middle;spacingTop=-1;spacingLeft=3;spacingRight=3;rotatable=0;labelPosition=right;points=[];portConstraint=eastwest;strokeColor=inherit;fontSize=12;" vertex="1" parent="Tq7jGYfVatZDM1Ckg21b-24">
          <mxGeometry y="94" width="260" height="8" as="geometry" />
        </mxCell>
        <mxCell id="Tq7jGYfVatZDM1Ckg21b-27" value="+setMemberJoin(MemberDTO) : String" style="text;strokeColor=none;fillColor=none;align=left;verticalAlign=top;spacingLeft=4;spacingRight=4;overflow=hidden;rotatable=0;points=[[0,0.5],[1,0.5]];portConstraint=eastwest;fontSize=12;" vertex="1" parent="Tq7jGYfVatZDM1Ckg21b-24">
          <mxGeometry y="102" width="260" height="98" as="geometry" />
        </mxCell>
        <mxCell id="Tq7jGYfVatZDM1Ckg21b-28" value="ProductService" style="swimlane;fontStyle=1;align=center;verticalAlign=top;childLayout=stackLayout;horizontal=1;startSize=40;horizontalStack=0;resizeParent=1;resizeParentMax=0;resizeLast=0;collapsible=1;marginBottom=0;fontSize=12;" vertex="1" parent="1">
          <mxGeometry x="520" y="496" width="330" height="204" as="geometry" />
        </mxCell>
        <mxCell id="Tq7jGYfVatZDM1Ckg21b-29" value="- ProductDAO: ProductDAO" style="text;strokeColor=none;fillColor=none;align=left;verticalAlign=top;spacingLeft=4;spacingRight=4;overflow=hidden;rotatable=0;points=[[0,0.5],[1,0.5]];portConstraint=eastwest;fontSize=12;" vertex="1" parent="Tq7jGYfVatZDM1Ckg21b-28">
          <mxGeometry y="40" width="330" height="64" as="geometry" />
        </mxCell>
        <mxCell id="Tq7jGYfVatZDM1Ckg21b-30" value="" style="line;strokeWidth=1;fillColor=none;align=left;verticalAlign=middle;spacingTop=-1;spacingLeft=3;spacingRight=3;rotatable=0;labelPosition=right;points=[];portConstraint=eastwest;strokeColor=inherit;fontSize=12;" vertex="1" parent="Tq7jGYfVatZDM1Ckg21b-28">
          <mxGeometry y="104" width="330" height="8" as="geometry" />
        </mxCell>
        <mxCell id="Tq7jGYfVatZDM1Ckg21b-31" value="+ getProductList(): List&lt;ProductDTO&gt;&#xa;+getProductDetail(ProductDTO): ProductDTO&#xa;+setAddProduct(ProductDTO,List&lt;ProductOptionDTO&gt;): int" style="text;strokeColor=none;fillColor=none;align=left;verticalAlign=top;spacingLeft=4;spacingRight=4;overflow=hidden;rotatable=0;points=[[0,0.5],[1,0.5]];portConstraint=eastwest;fontSize=12;" vertex="1" parent="Tq7jGYfVatZDM1Ckg21b-28">
          <mxGeometry y="112" width="330" height="92" as="geometry" />
        </mxCell>
        <mxCell id="Tq7jGYfVatZDM1Ckg21b-36" value="ProductDAO" style="swimlane;fontStyle=1;align=center;verticalAlign=top;childLayout=stackLayout;horizontal=1;startSize=40;horizontalStack=0;resizeParent=1;resizeParentMax=0;resizeLast=0;collapsible=1;marginBottom=0;fontSize=12;" vertex="1" parent="1">
          <mxGeometry x="960" y="496" width="300" height="190" as="geometry" />
        </mxCell>
        <mxCell id="Tq7jGYfVatZDM1Ckg21b-37" value="- sqlSession: sqlSession&#xa;-NAMESPACE: String" style="text;strokeColor=none;fillColor=none;align=left;verticalAlign=top;spacingLeft=4;spacingRight=4;overflow=hidden;rotatable=0;points=[[0,0.5],[1,0.5]];portConstraint=eastwest;fontSize=12;" vertex="1" parent="Tq7jGYfVatZDM1Ckg21b-36">
          <mxGeometry y="40" width="300" height="60" as="geometry" />
        </mxCell>
        <mxCell id="Tq7jGYfVatZDM1Ckg21b-38" value="" style="line;strokeWidth=1;fillColor=none;align=left;verticalAlign=middle;spacingTop=-1;spacingLeft=3;spacingRight=3;rotatable=0;labelPosition=right;points=[];portConstraint=eastwest;strokeColor=inherit;fontSize=12;" vertex="1" parent="Tq7jGYfVatZDM1Ckg21b-36">
          <mxGeometry y="100" width="300" height="8" as="geometry" />
        </mxCell>
        <mxCell id="Tq7jGYfVatZDM1Ckg21b-39" value="+ getProductList(): List&lt;ProductDTO&gt;&#xa;+getProductDetail(ProductDTO): ProductDTO&#xa;+setAddProduct(ProductDTO): int" style="text;strokeColor=none;fillColor=none;align=left;verticalAlign=top;spacingLeft=4;spacingRight=4;overflow=hidden;rotatable=0;points=[[0,0.5],[1,0.5]];portConstraint=eastwest;fontSize=12;" vertex="1" parent="Tq7jGYfVatZDM1Ckg21b-36">
          <mxGeometry y="108" width="300" height="82" as="geometry" />
        </mxCell>
      </root>
    </mxGraphModel>
  </diagram>
</mxfile>
